<svg width="917" height="122" viewBox="0 0 917 122" fill="none" xmlns="http://www.w3.org/2000/svg">
<g clip-path="url(#clip0_5_423)">
<path d="M98.1214 4.48907V117.677C98.1214 118.455 97.4758 119.085 96.6774 119.085H72.6057C72.1471 119.085 71.7054 118.869 71.4336 118.505L31.0706 63.377C30.2552 62.2672 28.4545 62.8304 28.4545 64.2053L29.0151 117.677C29.0151 118.455 28.3696 119.101 27.5712 119.101H1.44396C0.645535 119.101 0 118.472 0 117.693V4.48907C0 3.71052 0.645535 3.08105 1.44396 3.08105H25.3118C25.7874 3.08105 26.2461 3.31296 26.5009 3.71052L67.0168 63.0789C67.7982 64.2384 69.6669 63.6918 69.6499 62.2838L69.0893 4.48907C69.0893 3.71052 69.7348 3.08105 70.5332 3.08105H96.6944C97.4928 3.08105 98.1384 3.71052 98.1384 4.48907H98.1214Z" fill="#3F4F44"/>
<path d="M225.004 61.0083C225.004 94.6515 197.586 122.017 163.882 122.017C130.178 122.017 102.76 94.6515 102.76 61.0083C102.76 27.3651 130.195 0 163.882 0C197.569 0 225.004 27.3651 225.004 61.0083ZM197.331 61.0083C197.331 42.6379 182.33 27.6798 163.899 27.6798C145.467 27.6798 130.467 42.6213 130.467 61.0083C130.467 79.3952 145.467 94.3367 163.899 94.3367C182.33 94.3367 197.331 79.3952 197.331 61.0083Z" fill="#3F4F44"/>
<path d="M347.995 61.0083C347.995 94.6515 320.576 122.017 286.89 122.017C253.203 122.017 225.768 94.6515 225.768 61.0083C225.768 27.3651 253.186 0 286.89 0C320.593 0 347.995 27.3651 347.995 61.0083ZM320.322 61.0083C320.322 42.6379 305.321 27.6798 286.89 27.6798C268.458 27.6798 253.458 42.6213 253.458 61.0083C253.458 79.3952 268.458 94.3367 286.89 94.3367C305.321 94.3367 320.322 79.3952 320.322 61.0083Z" fill="#3F4F44"/>
<path d="M439.711 83.9506C439.711 94.1711 435.583 103.895 428.941 109.344C417.967 118.521 409.813 119.383 390.973 119.383H354.178C353.346 119.383 352.666 118.72 352.666 117.908V4.83693C352.666 4.04182 353.329 3.41235 354.127 3.41235H395.475C407.91 3.41235 418.697 6.27807 425.068 11.2641V11.2806C431.897 16.3495 435.498 24.2178 435.498 34.0242C435.498 42.1078 431.065 50.0092 423.352 55.7075C422.486 56.337 422.622 57.6456 423.607 58.0929C434.275 63.0126 439.677 71.7092 439.677 83.9671L439.711 83.9506ZM411.036 82.1947C411.036 77.921 408.997 75.0056 405.005 73.5479C401.897 72.3552 398.023 72.3552 395.696 72.3552H382.598C381.8 72.3552 381.138 72.9846 381.138 73.7798V91.6201C381.138 92.4152 381.8 93.0612 382.615 93.0612H395.679C397.548 93.0612 401.421 93.0612 404.615 91.736C408.794 90.0796 411.002 86.7832 411.002 82.1947H411.036ZM381.273 48.3693C381.273 49.1644 381.919 49.7939 382.734 49.7939H392.112C393.963 49.7939 397.837 49.7939 401.03 48.535C405.226 46.9447 407.435 43.7809 407.435 39.3415C407.435 35.2168 405.396 32.4008 401.387 30.9928C398.295 29.8498 394.422 29.8498 392.095 29.8498H382.734C381.919 29.8498 381.239 30.4959 381.239 31.291V48.3693H381.273Z" fill="#3F4F44"/>
<path d="M573.473 4.55534L558.558 117.909C558.473 118.604 557.861 119.134 557.131 119.134H526.621C525.992 119.134 525.432 118.737 525.245 118.14L507.119 60.6604C506.694 59.3352 504.775 59.3518 504.367 60.6604L486.853 118.107C486.666 118.704 486.105 119.118 485.476 119.118H454.797C454.066 119.118 453.455 118.588 453.37 117.892L438.471 4.53877C438.369 3.69396 439.032 2.94855 439.898 2.94855H466.297C467.045 2.94855 467.656 3.49519 467.724 4.22404L473.279 63.0126C473.415 64.5366 475.607 64.7685 476.082 63.3108L495.584 3.92587C495.771 3.3461 496.332 2.94855 496.96 2.94855H515.001C515.63 2.94855 516.173 3.3461 516.377 3.92587L535.879 63.3108C536.355 64.7685 538.529 64.5366 538.682 63.0126L544.237 4.22404C544.305 3.49519 544.934 2.94855 545.664 2.94855H572.063C572.93 2.94855 573.592 3.69396 573.49 4.52221L573.473 4.55534Z" fill="#3F4F44"/>
<path d="M695.055 61.0083C695.055 94.6515 667.636 122.017 633.933 122.017C600.229 122.017 572.811 94.6515 572.811 61.0083C572.811 27.3651 600.246 0 633.933 0C667.619 0 695.055 27.3651 695.055 61.0083ZM667.381 61.0083C667.381 42.6379 652.381 27.6798 633.95 27.6798C615.518 27.6798 600.518 42.6213 600.518 61.0083C600.518 79.3952 615.518 94.3367 633.95 94.3367C652.381 94.3367 667.381 79.3952 667.381 61.0083Z" fill="#3F4F44"/>
<path d="M785.48 117.296C785.888 118.223 785.191 119.267 784.155 119.267H754.393C753.815 119.267 753.305 118.936 753.068 118.422L737.507 83.6524C737.286 83.1389 736.759 82.8076 736.199 82.8076H731.425C730.627 82.8076 729.981 83.4371 729.981 84.2156V117.511C729.981 118.29 729.336 118.919 728.554 118.919H701.153C700.354 118.919 699.709 118.29 699.709 117.511V4.30688C699.709 3.52833 700.354 2.89886 701.153 2.89886H737.864C759.081 2.89886 767.303 6.14557 773.657 11.3801C782.388 18.5858 787.383 29.8333 787.383 42.2238C787.383 54.6143 782.439 66.4913 775.067 72.7528C772.858 74.608 770.905 76.016 768.9 77.1921C768.289 77.5566 768.034 78.302 768.323 78.948L785.48 117.279V117.296ZM758.351 42.6876C758.351 37.0224 756.04 33.2788 751.284 31.2744C747.292 29.6014 742.467 29.6014 739.273 29.6014H731.459C730.661 29.6014 730.015 30.2308 730.015 31.0094V54.7137C730.015 55.4922 730.661 56.1217 731.459 56.1217H740.378C743.147 56.1217 747.784 56.1217 751.607 54.4321C757.196 51.9805 758.368 46.6963 758.368 42.7042L758.351 42.6876Z" fill="#3F4F44"/>
<path d="M888.325 119.317H854.961C854.434 119.317 853.959 119.051 853.687 118.621L825.674 73.3988C824.893 72.1399 822.905 72.6865 822.905 74.1442V117.859C822.905 118.67 822.243 119.317 821.41 119.317H794.111C793.295 119.317 792.633 118.67 792.633 117.875V4.77069C792.633 3.97558 793.295 3.31299 794.128 3.31299H821.427C822.26 3.31299 822.922 3.97558 822.922 4.77069V47.5908C822.922 49.0485 824.876 49.5951 825.674 48.3693L854.757 3.97558C855.029 3.56146 855.505 3.31299 856.014 3.31299H884.299C885.488 3.31299 886.185 4.60504 885.539 5.56581L849.338 58.7058C848.998 59.2027 848.998 59.8653 849.338 60.3623L889.514 117.113C890.177 118.041 889.497 119.317 888.325 119.317Z" fill="#3F4F44"/>
<path d="M896.785 110.471C896.785 104.342 901.032 100.035 906.978 100.035C912.924 100.035 917.001 104.342 917.001 110.471C917.001 116.6 913.093 120.907 906.808 120.907C900.862 120.907 896.785 116.434 896.785 110.471Z" fill="#3F4F44"/>
</g>
<defs>
<clipPath id="clip0_5_423">
<rect width="917" height="122" fill="white"/>
</clipPath>
</defs>
</svg>
